<?xml version="1.0" encoding="UTF-8" standalone="no"?>
<svg xmlns:ffdec="https://www.free-decompiler.com/flash" xmlns:xlink="http://www.w3.org/1999/xlink" ffdec:objectType="morphshape" height="21.4px" width="8.35px" xmlns="http://www.w3.org/2000/svg">
  <g transform="matrix(1.0, 0.0, 0.0, 1.0, -27.8, 44.0)">
    <path d="M27.9 -24.45 L28.5 -22.6 29.15 -23.3 Q31.05 -25.05 33.6 -24.6 L33.7 -24.6 Q34.95 -24.3 35.85 -23.7 L36.15 -23.5 35.3 -25.0 35.2 -25.3 Q34.6 -26.75 35.0 -27.6 L35.45 -28.65 Q35.95 -29.9 35.95 -31.1 36.0 -33.4 34.05 -34.35 L33.65 -34.5 Q31.6 -35.25 30.9 -37.95 L30.8 -38.55 Q30.5 -40.15 30.65 -41.6 29.7 -40.0 30.1 -37.75 L30.5 -36.15 31.05 -34.5 31.65 -32.25 31.15 -30.85 30.8 -30.25 Q29.95 -29.25 29.15 -28.3 L28.75 -27.85 Q27.55 -26.6 27.9 -24.45" fill="#ffffff" fill-rule="evenodd" stroke="none">
      <animate attributeName="fill" dur="2s" repeatCount="indefinite" values="#ffffff;#ffffff"/>
      <animate attributeName="fill-opacity" dur="2s" repeatCount="indefinite" values="1.0;1.0"/>
      <animate attributeName="d" dur="2s" repeatCount="indefinite" values="M27.9 -24.45 L28.5 -22.6 29.15 -23.3 Q31.05 -25.05 33.6 -24.6 L33.7 -24.6 Q34.95 -24.3 35.85 -23.7 L36.15 -23.5 35.3 -25.0 35.2 -25.3 Q34.6 -26.75 35.0 -27.6 L35.45 -28.65 Q35.95 -29.9 35.95 -31.1 36.0 -33.4 34.05 -34.35 L33.65 -34.5 Q31.6 -35.25 30.9 -37.95 L30.8 -38.55 Q30.5 -40.15 30.65 -41.6 29.7 -40.0 30.1 -37.75 L30.5 -36.15 31.05 -34.5 31.65 -32.25 31.15 -30.85 30.8 -30.25 Q29.95 -29.25 29.15 -28.3 L28.75 -27.85 Q27.55 -26.6 27.9 -24.45;M28.5 -26.35 L28.6 -24.35 28.65 -23.35 Q30.8 -25.15 33.55 -24.7 L33.65 -24.7 Q35.05 -24.45 36.0 -23.85 L35.8 -24.25 35.1 -25.8 34.95 -26.1 Q34.4 -27.55 34.3 -28.55 L34.4 -29.85 Q34.85 -31.3 34.9 -32.45 34.95 -34.95 33.0 -36.1 L32.75 -36.3 Q31.5 -37.35 31.95 -40.6 L32.05 -41.1 Q32.4 -42.55 32.75 -44.0 31.1 -42.4 30.85 -40.45 L30.85 -38.6 31.15 -36.85 31.5 -34.65 31.6 -33.35 31.5 -32.6 Q31.2 -31.3 30.0 -30.5 L29.5 -30.0 Q28.6 -28.9 28.5 -26.35"/>
    </path>
    <path d="M27.9 -24.45 Q27.55 -26.6 28.75 -27.85 L29.15 -28.3 Q29.95 -29.25 30.8 -30.25 L31.15 -30.85 31.65 -32.25 31.05 -34.5 30.5 -36.15 30.1 -37.75 Q29.7 -40.0 30.65 -41.6 30.5 -40.15 30.8 -38.55 L30.9 -37.95 Q31.6 -35.25 33.65 -34.5 L34.05 -34.35 Q36.0 -33.4 35.95 -31.1 35.95 -29.9 35.45 -28.65 L35.0 -27.6 Q34.6 -26.75 35.2 -25.3 L35.3 -25.0 36.15 -23.5 35.85 -23.7 Q34.95 -24.3 33.7 -24.6 L33.6 -24.6 Q31.05 -25.05 29.15 -23.3 L28.5 -22.6 27.9 -24.45 Z" fill="none" stroke="#000000" stroke-linecap="round" stroke-linejoin="round" stroke-opacity="0.0" stroke-width="0.0">
      <animate attributeName="stroke" dur="2s" repeatCount="indefinite" values="#000000;#000001"/>
      <animate attributeName="stroke-width" dur="2s" repeatCount="indefinite" values="0.0;0.0"/>
      <animate attributeName="fill-opacity" dur="2s" repeatCount="indefinite" values="0.0;0.0"/>
      <animate attributeName="d" dur="2s" repeatCount="indefinite" values="M27.9 -24.45 Q27.55 -26.6 28.75 -27.85 L29.15 -28.3 Q29.95 -29.25 30.8 -30.25 L31.15 -30.85 31.65 -32.25 31.05 -34.5 30.5 -36.15 30.1 -37.75 Q29.7 -40.0 30.65 -41.6 30.5 -40.15 30.8 -38.55 L30.9 -37.95 Q31.6 -35.25 33.65 -34.5 L34.05 -34.35 Q36.0 -33.4 35.95 -31.1 35.95 -29.9 35.45 -28.65 L35.0 -27.6 Q34.6 -26.75 35.2 -25.3 L35.3 -25.0 36.15 -23.5 35.85 -23.7 Q34.95 -24.3 33.7 -24.6 L33.6 -24.6 Q31.05 -25.05 29.15 -23.3 L28.5 -22.6 27.9 -24.45 Z;M28.5 -26.35 Q28.6 -28.9 29.5 -30.0 L30.0 -30.5 Q31.2 -31.3 31.5 -32.6 L31.6 -33.35 31.5 -34.65 31.15 -36.85 30.85 -38.6 30.85 -40.45 Q31.1 -42.4 32.75 -44.0 32.4 -42.55 32.05 -41.1 L31.95 -40.6 Q31.5 -37.35 32.75 -36.3 L33.0 -36.1 Q34.95 -34.95 34.9 -32.45 34.85 -31.3 34.4 -29.85 L34.3 -28.55 Q34.4 -27.55 34.95 -26.1 L35.1 -25.8 35.8 -24.25 36.0 -23.85 Q35.05 -24.45 33.65 -24.7 L33.55 -24.7 Q30.8 -25.15 28.65 -23.35 L28.6 -24.35 28.5 -26.35 Z"/>
    </path>
  </g>
</svg>
