<?xml version="1.0" encoding="UTF-8" standalone="no"?>
<svg xmlns:ffdec="https://www.free-decompiler.com/flash" xmlns:xlink="http://www.w3.org/1999/xlink" ffdec:objectType="morphshape" height="21.5px" width="7.5px" xmlns="http://www.w3.org/2000/svg">
  <g transform="matrix(1.0, 0.0, 0.0, 1.0, -28.5, 44.85)">
    <path d="M28.5 -26.35 Q28.6 -24.85 28.65 -23.35 29.95 -24.45 31.5 -24.7 L33.05 -24.8 33.65 -24.7 Q35.05 -24.45 36.0 -23.85 L35.55 -24.8 34.95 -26.1 Q34.2 -28.0 34.3 -29.2 L34.4 -29.85 Q35.0 -31.7 34.85 -33.1 34.65 -35.05 33.0 -36.1 L33.0 -36.1 Q31.7 -36.9 31.85 -39.5 L31.95 -40.6 32.1 -41.6 32.4 -42.9 32.75 -44.0 Q32.25 -43.45 31.8 -42.9 31.0 -41.75 30.85 -40.45 30.7 -39.4 31.0 -37.7 L31.15 -36.85 Q31.4 -35.1 31.6 -33.35 L31.55 -32.9 Q31.3 -31.35 30.0 -30.5 29.3 -30.05 28.95 -29.05 28.55 -28.0 28.5 -26.35" fill="#ffffff" fill-rule="evenodd" stroke="none">
      <animate attributeName="fill" dur="2s" repeatCount="indefinite" values="#ffffff;#ffffff"/>
      <animate attributeName="fill-opacity" dur="2s" repeatCount="indefinite" values="1.0;1.0"/>
      <animate attributeName="d" dur="2s" repeatCount="indefinite" values="M28.5 -26.35 Q28.6 -24.85 28.65 -23.35 29.95 -24.45 31.5 -24.7 L33.05 -24.8 33.65 -24.7 Q35.05 -24.45 36.0 -23.85 L35.55 -24.8 34.95 -26.1 Q34.2 -28.0 34.3 -29.2 L34.4 -29.85 Q35.0 -31.7 34.85 -33.1 34.65 -35.05 33.0 -36.1 L33.0 -36.1 Q31.7 -36.9 31.85 -39.5 L31.95 -40.6 32.1 -41.6 32.4 -42.9 32.75 -44.0 Q32.25 -43.45 31.8 -42.9 31.0 -41.75 30.85 -40.45 30.7 -39.4 31.0 -37.7 L31.15 -36.85 Q31.4 -35.1 31.6 -33.35 L31.55 -32.9 Q31.3 -31.35 30.0 -30.5 29.3 -30.05 28.95 -29.05 28.55 -28.0 28.5 -26.35;M28.75 -23.75 Q30.15 -24.65 31.55 -24.8 33.0 -24.95 34.45 -24.35 L35.9 -23.6 35.6 -24.05 Q34.95 -24.95 34.45 -26.4 L34.1 -27.5 33.8 -28.95 Q33.45 -31.0 34.15 -32.0 L34.45 -32.5 Q35.25 -33.85 35.25 -35.4 35.2 -37.4 33.75 -38.75 L33.75 -38.75 Q32.5 -40.0 32.35 -42.5 L32.3 -43.55 32.4 -44.85 31.55 -43.5 31.15 -42.3 Q31.05 -41.45 31.4 -40.75 31.85 -39.45 32.25 -38.15 32.4 -36.85 32.5 -35.55 L32.55 -34.35 Q32.45 -31.85 31.45 -30.85 L31.15 -30.6 Q30.2 -29.95 29.6 -28.3 29.35 -27.45 29.1 -26.6 28.9 -25.15 28.75 -23.75"/>
    </path>
    <path d="M28.5 -26.35 Q28.55 -28.0 28.95 -29.05 29.3 -30.05 30.0 -30.5 31.3 -31.35 31.55 -32.9 L31.6 -33.35 Q31.4 -35.1 31.15 -36.85 L31.0 -37.7 Q30.7 -39.4 30.85 -40.45 31.0 -41.75 31.8 -42.9 32.25 -43.45 32.75 -44.0 L32.4 -42.9 32.1 -41.6 31.95 -40.6 31.85 -39.5 Q31.7 -36.9 33.0 -36.1 L33.0 -36.1 Q34.65 -35.05 34.85 -33.1 35.0 -31.7 34.4 -29.85 L34.3 -29.2 Q34.2 -28.0 34.95 -26.1 L35.55 -24.8 36.0 -23.85 Q35.05 -24.45 33.65 -24.7 L33.05 -24.8 31.5 -24.7 Q29.95 -24.45 28.65 -23.35 28.6 -24.85 28.5 -26.35 Z" fill="none" stroke="#000000" stroke-linecap="round" stroke-linejoin="round" stroke-opacity="0.0" stroke-width="0.0">
      <animate attributeName="stroke" dur="2s" repeatCount="indefinite" values="#000000;#000001"/>
      <animate attributeName="stroke-width" dur="2s" repeatCount="indefinite" values="0.0;0.0"/>
      <animate attributeName="fill-opacity" dur="2s" repeatCount="indefinite" values="0.0;0.0"/>
      <animate attributeName="d" dur="2s" repeatCount="indefinite" values="M28.5 -26.35 Q28.55 -28.0 28.95 -29.05 29.3 -30.05 30.0 -30.5 31.3 -31.35 31.55 -32.9 L31.6 -33.35 Q31.4 -35.1 31.15 -36.85 L31.0 -37.7 Q30.7 -39.4 30.85 -40.45 31.0 -41.75 31.8 -42.9 32.25 -43.45 32.75 -44.0 L32.4 -42.9 32.1 -41.6 31.95 -40.6 31.85 -39.5 Q31.7 -36.9 33.0 -36.1 L33.0 -36.1 Q34.65 -35.05 34.85 -33.1 35.0 -31.7 34.4 -29.85 L34.3 -29.2 Q34.2 -28.0 34.95 -26.1 L35.55 -24.8 36.0 -23.85 Q35.05 -24.45 33.65 -24.7 L33.05 -24.8 31.5 -24.7 Q29.95 -24.45 28.65 -23.35 28.6 -24.85 28.5 -26.35 Z;M28.75 -23.75 Q28.9 -25.15 29.1 -26.6 29.35 -27.45 29.6 -28.3 30.2 -29.95 31.15 -30.6 L31.45 -30.85 Q32.45 -31.85 32.55 -34.35 L32.5 -35.55 Q32.4 -36.85 32.25 -38.15 31.85 -39.45 31.4 -40.75 31.05 -41.45 31.15 -42.3 L31.55 -43.5 32.4 -44.85 32.3 -43.55 32.35 -42.5 Q32.5 -40.0 33.75 -38.75 L33.75 -38.75 Q35.2 -37.4 35.25 -35.4 35.25 -33.85 34.45 -32.5 L34.15 -32.0 Q33.45 -31.0 33.8 -28.95 L34.1 -27.5 34.45 -26.4 Q34.95 -24.95 35.6 -24.05 L35.9 -23.6 34.45 -24.35 Q33.0 -24.95 31.55 -24.8 30.15 -24.65 28.75 -23.75 Z"/>
    </path>
  </g>
</svg>
