<?xml version="1.0" encoding="UTF-8" standalone="no"?>
<svg xmlns:ffdec="https://www.free-decompiler.com/flash" xmlns:xlink="http://www.w3.org/1999/xlink" ffdec:objectType="morphshape" height="21.25px" width="7.15px" xmlns="http://www.w3.org/2000/svg">
  <g transform="matrix(1.0, 0.0, 0.0, 1.0, -28.75, 44.85)">
    <path d="M28.75 -23.75 Q31.3 -25.4 33.95 -24.55 L34.45 -24.35 35.9 -23.6 35.9 -23.6 35.15 -24.7 Q34.65 -25.85 34.2 -27.0 L34.1 -27.5 Q33.2 -30.65 34.15 -32.0 L34.95 -33.55 Q35.1 -34.5 35.25 -35.4 L35.0 -36.85 Q34.65 -37.9 33.75 -38.75 L32.9 -39.95 Q32.45 -41.0 32.35 -42.5 L32.35 -43.1 Q32.3 -44.05 32.4 -44.85 L32.3 -44.7 Q31.85 -44.2 31.55 -43.5 30.8 -41.9 31.4 -40.75 L31.4 -40.75 32.15 -38.6 Q32.35 -37.25 32.5 -35.95 L32.5 -35.55 Q32.6 -33.35 32.15 -32.1 31.8 -31.05 31.15 -30.6 L30.35 -29.8 Q29.55 -28.7 29.1 -26.6 L29.1 -26.3 28.75 -23.75" fill="#ffffff" fill-rule="evenodd" stroke="none">
      <animate attributeName="fill" dur="2s" repeatCount="indefinite" values="#ffffff;#ffffff"/>
      <animate attributeName="fill-opacity" dur="2s" repeatCount="indefinite" values="1.0;1.0"/>
      <animate attributeName="d" dur="2s" repeatCount="indefinite" values="M28.75 -23.75 Q31.3 -25.4 33.95 -24.55 L34.45 -24.35 35.9 -23.6 35.9 -23.6 35.15 -24.7 Q34.65 -25.85 34.2 -27.0 L34.1 -27.5 Q33.2 -30.65 34.15 -32.0 L34.95 -33.55 Q35.1 -34.5 35.25 -35.4 L35.0 -36.85 Q34.65 -37.9 33.75 -38.75 L32.9 -39.95 Q32.45 -41.0 32.35 -42.5 L32.35 -43.1 Q32.3 -44.05 32.4 -44.85 L32.3 -44.7 Q31.85 -44.2 31.55 -43.5 30.8 -41.9 31.4 -40.75 L31.4 -40.75 32.15 -38.6 Q32.35 -37.25 32.5 -35.95 L32.5 -35.55 Q32.6 -33.35 32.15 -32.1 31.8 -31.05 31.15 -30.6 L30.35 -29.8 Q29.55 -28.7 29.1 -26.6 L29.1 -26.3 28.75 -23.75;M28.75 -23.85 Q31.15 -25.25 33.7 -24.55 L34.35 -24.35 35.75 -23.6 35.75 -23.6 35.1 -24.8 Q34.5 -26.15 34.65 -27.1 L34.75 -27.5 Q35.1 -30.2 34.7 -31.9 L34.0 -33.5 Q33.45 -34.2 33.3 -35.05 L33.2 -36.55 Q33.4 -37.55 33.55 -38.55 L33.9 -40.0 Q34.25 -41.2 33.5 -42.4 L33.15 -43.0 Q32.55 -43.6 32.0 -44.15 L31.9 -44.25 Q32.1 -43.7 32.25 -43.15 32.35 -41.8 32.4 -40.5 L32.4 -40.4 31.9 -38.1 Q31.7 -36.8 32.15 -35.5 L32.3 -35.1 Q32.75 -33.65 32.6 -32.1 32.35 -31.2 32.15 -30.3 L31.5 -29.35 Q30.75 -28.6 29.75 -26.45 L29.65 -26.15 28.75 -23.85"/>
    </path>
    <path d="M28.75 -23.75 L29.1 -26.3 29.1 -26.6 Q29.55 -28.7 30.35 -29.8 L31.15 -30.6 Q31.8 -31.05 32.15 -32.1 32.6 -33.35 32.5 -35.55 L32.5 -35.95 Q32.35 -37.25 32.15 -38.6 L31.4 -40.75 31.4 -40.75 Q30.8 -41.9 31.55 -43.5 31.85 -44.2 32.3 -44.7 L32.4 -44.85 Q32.3 -44.05 32.35 -43.1 L32.35 -42.5 Q32.45 -41.0 32.9 -39.95 L33.75 -38.75 Q34.65 -37.9 35.0 -36.85 L35.25 -35.4 Q35.1 -34.5 34.95 -33.55 L34.15 -32.0 Q33.2 -30.65 34.1 -27.5 L34.2 -27.0 Q34.65 -25.85 35.15 -24.7 L35.9 -23.6 35.9 -23.6 34.45 -24.35 33.95 -24.55 Q31.3 -25.4 28.75 -23.75 Z" fill="none" stroke="#000000" stroke-linecap="round" stroke-linejoin="round" stroke-opacity="0.0" stroke-width="0.0">
      <animate attributeName="stroke" dur="2s" repeatCount="indefinite" values="#000000;#000001"/>
      <animate attributeName="stroke-width" dur="2s" repeatCount="indefinite" values="0.0;0.0"/>
      <animate attributeName="fill-opacity" dur="2s" repeatCount="indefinite" values="0.0;0.0"/>
      <animate attributeName="d" dur="2s" repeatCount="indefinite" values="M28.75 -23.75 L29.1 -26.3 29.1 -26.6 Q29.55 -28.7 30.35 -29.8 L31.15 -30.6 Q31.8 -31.05 32.15 -32.1 32.6 -33.35 32.5 -35.55 L32.5 -35.95 Q32.35 -37.25 32.15 -38.6 L31.4 -40.75 31.4 -40.75 Q30.8 -41.9 31.55 -43.5 31.85 -44.2 32.3 -44.7 L32.4 -44.85 Q32.3 -44.05 32.35 -43.1 L32.35 -42.5 Q32.45 -41.0 32.9 -39.95 L33.75 -38.75 Q34.65 -37.9 35.0 -36.85 L35.25 -35.4 Q35.1 -34.5 34.95 -33.55 L34.15 -32.0 Q33.2 -30.65 34.1 -27.5 L34.2 -27.0 Q34.65 -25.85 35.15 -24.7 L35.9 -23.6 35.9 -23.6 34.45 -24.35 33.95 -24.55 Q31.3 -25.4 28.75 -23.75 Z;M28.75 -23.85 L29.65 -26.15 29.75 -26.45 Q30.75 -28.6 31.5 -29.35 L32.15 -30.3 Q32.35 -31.2 32.6 -32.1 32.75 -33.65 32.3 -35.1 L32.15 -35.5 Q31.7 -36.8 31.9 -38.1 L32.4 -40.4 32.4 -40.5 Q32.35 -41.8 32.25 -43.15 32.1 -43.7 31.9 -44.25 L32.0 -44.15 Q32.55 -43.6 33.15 -43.0 L33.5 -42.4 Q34.25 -41.2 33.9 -40.0 L33.55 -38.55 Q33.4 -37.55 33.2 -36.55 L33.3 -35.05 Q33.45 -34.2 34.0 -33.5 L34.7 -31.9 Q35.1 -30.2 34.75 -27.5 L34.65 -27.1 Q34.5 -26.15 35.1 -24.8 L35.75 -23.6 35.75 -23.6 34.35 -24.35 33.7 -24.55 Q31.15 -25.25 28.75 -23.85 Z"/>
    </path>
  </g>
</svg>
