<?xml version="1.0" encoding="UTF-8" standalone="no"?>
<svg xmlns:ffdec="https://www.free-decompiler.com/flash" xmlns:xlink="http://www.w3.org/1999/xlink" ffdec:objectType="morphshape" height="21.3px" width="7.85px" xmlns="http://www.w3.org/2000/svg">
  <g transform="matrix(1.0, 0.0, 0.0, 1.0, -28.05, 44.25)">
    <path d="M28.75 -23.85 L30.15 -24.5 Q31.8 -24.6 33.4 -24.65 L33.7 -24.55 35.65 -23.7 35.75 -23.6 35.55 -23.9 35.3 -24.4 35.1 -24.8 34.75 -25.8 34.7 -25.9 Q34.55 -26.55 34.65 -27.1 L34.65 -27.3 Q34.8 -28.85 34.9 -30.4 L34.5 -32.55 34.0 -33.5 33.8 -33.8 Q33.25 -34.7 33.15 -35.8 L33.2 -36.55 33.5 -38.3 33.65 -38.95 33.9 -40.0 Q34.2 -41.2 33.55 -42.4 L33.15 -43.0 33.05 -43.1 32.3 -43.95 31.9 -44.25 32.3 -42.95 32.45 -41.4 32.4 -40.5 32.05 -38.85 31.9 -38.1 Q31.9 -37.25 31.9 -36.4 L32.0 -36.0 32.15 -35.5 Q32.7 -34.0 32.6 -32.4 L32.6 -32.1 32.05 -30.15 31.6 -29.45 31.5 -29.35 30.15 -27.2 29.65 -26.15 29.65 -26.05 Q29.2 -24.95 28.75 -23.85" fill="#ffffff" fill-rule="evenodd" stroke="none">
      <animate attributeName="fill" dur="2s" repeatCount="indefinite" values="#ffffff;#ffffff"/>
      <animate attributeName="fill-opacity" dur="2s" repeatCount="indefinite" values="1.0;1.0"/>
      <animate attributeName="d" dur="2s" repeatCount="indefinite" values="M28.75 -23.85 L30.15 -24.5 Q31.8 -24.6 33.4 -24.65 L33.7 -24.55 35.65 -23.7 35.75 -23.6 35.55 -23.9 35.3 -24.4 35.1 -24.8 34.75 -25.8 34.7 -25.9 Q34.55 -26.55 34.65 -27.1 L34.65 -27.3 Q34.8 -28.85 34.9 -30.4 L34.5 -32.55 34.0 -33.5 33.8 -33.8 Q33.25 -34.7 33.15 -35.8 L33.2 -36.55 33.5 -38.3 33.65 -38.95 33.9 -40.0 Q34.2 -41.2 33.55 -42.4 L33.15 -43.0 33.05 -43.1 32.3 -43.95 31.9 -44.25 32.3 -42.95 32.45 -41.4 32.4 -40.5 32.05 -38.85 31.9 -38.1 Q31.9 -37.25 31.9 -36.4 L32.0 -36.0 32.15 -35.5 Q32.7 -34.0 32.6 -32.4 L32.6 -32.1 32.05 -30.15 31.6 -29.45 31.5 -29.35 30.15 -27.2 29.65 -26.15 29.65 -26.05 Q29.2 -24.95 28.75 -23.85;M28.05 -24.35 L28.85 -22.95 Q30.0 -24.15 31.4 -24.45 L31.7 -24.5 33.45 -24.5 33.65 -24.5 33.9 -24.55 34.45 -24.5 34.9 -24.45 35.9 -24.1 35.85 -24.2 Q35.6 -24.7 35.4 -25.2 L35.2 -25.6 Q34.65 -27.25 34.95 -28.25 L35.5 -30.3 35.5 -31.3 35.5 -31.7 Q35.35 -32.6 35.2 -33.45 L34.85 -34.1 33.65 -35.25 33.0 -35.75 32.45 -36.4 Q31.85 -37.25 31.4 -38.4 L31.2 -38.95 31.1 -39.45 30.9 -40.1 30.9 -40.5 30.95 -41.65 30.55 -40.4 30.4 -39.5 30.35 -38.2 30.4 -37.5 Q30.5 -36.85 30.75 -36.1 L30.85 -35.7 31.05 -35.25 Q31.9 -32.65 31.8 -32.2 L31.7 -31.8 31.0 -30.2 30.5 -29.5 30.4 -29.4 29.0 -27.75 28.3 -26.75 28.3 -26.65 Q27.95 -25.6 28.05 -24.35"/>
    </path>
    <path d="M28.75 -23.85 Q29.2 -24.95 29.65 -26.05 L29.65 -26.15 30.15 -27.2 31.5 -29.35 31.6 -29.45 32.05 -30.15 32.6 -32.1 32.6 -32.4 Q32.7 -34.0 32.15 -35.5 L32.0 -36.0 31.9 -36.4 Q31.9 -37.25 31.9 -38.1 L32.05 -38.85 32.4 -40.5 32.45 -41.4 32.3 -42.95 31.9 -44.25 32.3 -43.95 33.05 -43.1 33.15 -43.0 33.55 -42.4 Q34.2 -41.2 33.9 -40.0 L33.65 -38.95 33.5 -38.3 33.2 -36.55 33.15 -35.8 Q33.25 -34.7 33.8 -33.8 L34.0 -33.5 34.5 -32.55 34.9 -30.4 Q34.8 -28.85 34.65 -27.3 L34.65 -27.1 Q34.55 -26.55 34.7 -25.9 L34.75 -25.8 35.1 -24.8 35.3 -24.4 35.55 -23.9 35.75 -23.6 35.65 -23.7 33.7 -24.55 33.4 -24.65 Q31.8 -24.6 30.15 -24.5 L28.75 -23.85 Z" fill="none" stroke="#000000" stroke-linecap="round" stroke-linejoin="round" stroke-opacity="0.0" stroke-width="0.0">
      <animate attributeName="stroke" dur="2s" repeatCount="indefinite" values="#000000;#000001"/>
      <animate attributeName="stroke-width" dur="2s" repeatCount="indefinite" values="0.0;0.0"/>
      <animate attributeName="fill-opacity" dur="2s" repeatCount="indefinite" values="0.0;0.0"/>
      <animate attributeName="d" dur="2s" repeatCount="indefinite" values="M28.75 -23.85 Q29.2 -24.95 29.65 -26.05 L29.65 -26.15 30.15 -27.2 31.5 -29.35 31.6 -29.45 32.05 -30.15 32.6 -32.1 32.6 -32.4 Q32.7 -34.0 32.15 -35.5 L32.0 -36.0 31.9 -36.4 Q31.9 -37.25 31.9 -38.1 L32.05 -38.85 32.4 -40.5 32.45 -41.4 32.3 -42.95 31.9 -44.25 32.3 -43.95 33.05 -43.1 33.15 -43.0 33.55 -42.4 Q34.2 -41.2 33.9 -40.0 L33.65 -38.95 33.5 -38.3 33.2 -36.55 33.15 -35.8 Q33.25 -34.7 33.8 -33.8 L34.0 -33.5 34.5 -32.55 34.9 -30.4 Q34.8 -28.85 34.65 -27.3 L34.65 -27.1 Q34.55 -26.55 34.7 -25.9 L34.75 -25.8 35.1 -24.8 35.3 -24.4 35.55 -23.9 35.75 -23.6 35.65 -23.7 33.7 -24.55 33.4 -24.65 Q31.8 -24.6 30.15 -24.5 L28.75 -23.85 Z;M28.05 -24.35 Q27.95 -25.6 28.3 -26.65 L28.3 -26.75 29.0 -27.75 30.4 -29.4 30.5 -29.5 31.0 -30.2 31.7 -31.8 31.8 -32.2 Q31.9 -32.65 31.05 -35.25 L30.85 -35.7 30.75 -36.1 Q30.5 -36.85 30.4 -37.5 L30.35 -38.2 30.4 -39.5 30.55 -40.4 30.95 -41.65 30.9 -40.5 30.9 -40.1 31.1 -39.45 31.2 -38.95 31.4 -38.4 Q31.85 -37.25 32.45 -36.4 L33.0 -35.75 33.65 -35.25 34.85 -34.1 35.2 -33.45 Q35.35 -32.6 35.5 -31.7 L35.5 -31.3 35.5 -30.3 34.95 -28.25 Q34.65 -27.25 35.2 -25.6 L35.4 -25.2 Q35.6 -24.7 35.85 -24.2 L35.9 -24.1 34.9 -24.45 34.45 -24.5 33.9 -24.55 33.65 -24.5 33.45 -24.5 31.7 -24.5 31.4 -24.45 Q30.0 -24.15 28.85 -22.95 L28.05 -24.35 Z"/>
    </path>
  </g>
</svg>
